<?xml version="1.0" encoding="utf-8"?>
<!DOCTYPE svg PUBLIC "-//W3C//DTD SVG 20010904//EN" "http://www.w3.org/TR/2001/REC-SVG-20010904/DTD/svg10.dtd">
<svg version="1.0" xmlns="http://www.w3.org/2000/svg" width="52pt" height="52pt" viewBox="0 0 52 52" style="" preserveAspectRatio="xMidYMid meet">
<g fill="#86C470FF" stroke="#86C470FF">
<path d="M 18.500 4.654 C 8.061 6.810 8.280 6.639 11.568 10.071 C 16.053 14.752 23.063 18.707 27.948 19.312 C 31.102 19.702 31.975 19.569 30.948 18.853 C 29.859 18.094 30.175 17.951 32.220 18.277 C 33.874 18.541 34.697 18.319 34.321 17.711 C 33.943 17.098 34.719 16.904 36.321 17.211 C 37.943 17.521 38.701 17.326 38.313 16.698 C 37.930 16.077 38.522 15.903 39.844 16.249 C 41.030 16.559 42.000 16.436 42.000 15.976 C 42.000 15.516 43.013 14.995 44.250 14.820 C 45.961 14.577 44.088 13.122 36.435 8.750 C 30.900 5.588 26.175 3.047 25.935 3.104 C 25.696 3.161 22.350 3.859 18.500 4.654 "/></g>
<g fill="#355E24FF" stroke="#355E24FF">
<path d="M 5.000 10.297 C 5.000 12.671 9.025 16.992 16.750 22.911 C 20.682 25.924 21.000 26.012 21.000 24.084 C 21.000 22.938 21.450 22.000 22.000 22.000 C 22.550 22.000 23.000 21.550 23.000 21.000 C 23.000 20.450 22.582 20.113 22.070 20.250 C 21.559 20.388 17.751 17.688 13.608 14.250 C 9.465 10.813 5.833 8.000 5.537 8.000 C 5.242 8.000 5.000 9.034 5.000 10.297 "/></g>
<g fill="#D1D1D1FF" stroke="#D1D1D1FF">
<path d="M 33.500 19.679 C 24.453 22.192 21.240 23.961 22.377 25.802 C 22.917 26.675 43.318 22.015 44.610 20.724 C 45.210 20.124 43.940 16.979 43.143 17.089 C 42.789 17.139 38.450 18.304 33.500 19.679 "/></g>
<g fill="#D1D1D1FF" stroke="#D1D1D1FF">
<path d="M 32.239 40.104 C 22.435 41.244 18.557 42.345 18.223 44.082 C 17.939 45.556 20.007 45.652 27.500 44.513 C 29.150 44.262 32.075 43.831 34.000 43.554 C 35.925 43.278 38.400 42.850 39.500 42.603 C 40.600 42.355 41.838 42.119 42.250 42.077 C 42.663 42.034 43.000 41.325 43.000 40.500 C 43.000 38.869 42.894 38.865 32.239 40.104 "/></g>
<g fill="#C6261AFF" stroke="#C6261AFF">
<path d="M 11.070 27.191 C 10.995 30.065 12.786 31.965 13.888 30.181 C 14.316 29.489 15.079 29.438 16.026 30.037 C 17.982 31.274 35.175 31.264 38.435 30.025 C 42.450 28.498 41.638 26.681 37.250 27.373 C 24.896 29.322 21.461 29.276 17.197 27.101 C 13.313 25.119 12.995 25.091 12.930 26.730 C 12.869 28.267 12.746 28.237 12.000 26.500 C 11.233 24.714 11.133 24.788 11.070 27.191 "/></g>
<g fill="#D1D1D1FF" stroke="#D1D1D1FF">
<path d="M 13.667 33.667 C 11.768 35.565 14.159 36.000 26.500 36.000 C 37.833 36.000 40.000 35.759 40.000 34.500 C 40.000 33.245 37.907 33.000 27.167 33.000 C 20.108 33.000 14.033 33.300 13.667 33.667 "/></g>
<g fill="#4F9938FF" stroke="#4F9938FF">
<path d="M 7.000 7.936 C 7.000 8.450 10.263 11.530 14.250 14.780 C 20.223 19.647 22.025 20.616 24.482 20.279 C 28.200 19.768 29.115 19.000 26.004 19.000 C 23.222 19.000 15.600 14.279 11.539 10.041 C 8.592 6.965 7.000 6.227 7.000 7.936 "/></g>
<g fill="#909090FF" stroke="#909090FF">
<path d="M 13.250 32.662 C 12.563 32.940 12.000 33.890 12.000 34.774 C 12.000 36.217 12.129 36.210 13.250 34.709 C 14.289 33.318 16.776 32.986 28.000 32.736 L 41.500 32.437 28.000 32.297 C 20.575 32.221 13.938 32.385 13.250 32.662 "/></g>
<g fill="#2A3969FF" stroke="#2A3969FF">
<path d="M 5.045 22.250 C 5.070 23.488 6.175 26.525 7.500 29.000 L 9.910 33.500 9.955 30.118 C 9.993 27.255 6.740 20.000 5.418 20.000 C 5.188 20.000 5.020 21.013 5.045 22.250 "/></g>
<g fill="#909090FF" stroke="#909090FF">
<path d="M 31.537 39.145 C 21.241 40.465 17.000 41.802 17.000 43.730 C 17.000 45.243 17.105 45.239 18.250 43.685 C 19.116 42.510 22.112 41.652 28.000 40.892 C 37.927 39.611 44.847 38.194 41.000 38.230 C 39.625 38.243 35.367 38.655 31.537 39.145 "/></g>
<g fill="#C8807DFF" stroke="#C8807DFF">
<path d="M 40.150 35.000 C 40.061 35.594 34.719 36.095 27.000 36.233 L 14.000 36.466 27.250 36.483 C 37.245 36.496 40.475 36.193 40.400 35.250 C 40.345 34.563 40.233 34.450 40.150 35.000 "/></g>
<g fill="#86C470FF" stroke="#86C470FF">
<path d="M 15.500 37.497 C 16.050 37.683 21.450 38.023 27.500 38.251 C 33.550 38.480 37.150 38.345 35.500 37.952 C 32.579 37.255 13.508 36.822 15.500 37.497 "/></g>
<g fill="#2A3969FF" stroke="#2A3969FF">
<path d="M 12.744 37.589 C 12.450 37.883 13.400 40.150 14.855 42.627 C 16.310 45.104 17.150 46.150 16.722 44.952 C 16.275 43.702 16.387 42.239 16.984 41.519 C 17.717 40.636 17.652 39.977 16.762 39.288 C 14.539 37.568 13.293 37.041 12.744 37.589 "/></g>
<g fill="#A1160BFF" stroke="#A1160BFF">
<path d="M 11.070 23.250 C 11.109 23.938 11.527 25.400 12.000 26.500 C 12.749 28.243 12.868 28.272 12.930 26.724 C 12.996 25.050 13.186 25.043 16.250 26.596 L 19.500 28.242 16.563 25.121 C 13.549 21.918 10.946 21.031 11.070 23.250 "/></g>
<g fill="#3A59BAFF" stroke="#3A59BAFF">
<path d="M 17.000 39.000 C 17.000 40.184 20.937 40.208 26.500 39.057 C 30.204 38.291 30.001 38.222 23.750 38.115 C 19.840 38.048 17.000 38.421 17.000 39.000 "/></g>
<g fill="#A1160BFF" stroke="#A1160BFF">
<path d="M 27.500 27.472 C 24.090 28.596 23.887 28.806 26.125 28.895 C 29.928 29.047 35.000 27.893 35.000 26.875 C 35.000 25.680 32.280 25.897 27.500 27.472 "/></g>
<g fill="#909090FF" stroke="#909090FF">
<path d="M 22.750 22.080 C 20.961 23.122 20.282 27.000 21.889 27.000 C 22.378 27.000 22.715 26.239 22.639 25.308 C 22.563 24.378 23.625 23.035 25.000 22.323 C 26.375 21.612 26.825 21.037 26.000 21.045 C 25.175 21.054 23.713 21.519 22.750 22.080 "/></g>
<g fill="#431107FF" stroke="#431107FF">
<path d="M 17.000 24.261 C 19.475 26.796 20.875 27.887 20.111 26.685 C 19.347 25.483 17.322 23.409 15.611 22.076 C 13.623 20.527 14.125 21.316 17.000 24.261 "/></g>
<g fill="#3A59BAFF" stroke="#3A59BAFF">
<path d="M 6.719 19.615 C 6.381 19.953 6.868 21.394 7.802 22.817 L 9.500 25.405 9.175 22.202 C 8.864 19.142 8.049 18.284 6.719 19.615 "/></g>
<g fill="#92413DFF" stroke="#92413DFF">
<path d="M 11.345 33.911 C 11.463 36.499 11.982 37.388 13.500 37.597 C 15.300 37.846 15.335 37.751 13.847 36.648 C 12.938 35.973 11.969 34.314 11.693 32.961 C 11.349 31.278 11.240 31.579 11.345 33.911 "/></g>
<g fill="#A1160BFF" stroke="#A1160BFF">
<path d="M 37.000 37.100 L 32.500 37.700 37.333 37.850 C 39.992 37.932 42.017 37.663 41.833 37.250 C 41.650 36.838 39.475 36.770 37.000 37.100 "/></g>
<g fill="#750B02FF" stroke="#750B02FF">
<path d="M 16.500 24.500 L 20.000 28.000 16.500 24.500 L 13.000 21.000 16.500 24.500 "/></g>
<g fill="#E93426FF" stroke="#E93426FF">
<path d="M 38.500 30.000 C 36.728 30.762 36.813 30.867 39.250 30.930 C 40.763 30.968 42.000 30.550 42.000 30.000 C 42.000 28.826 41.231 28.826 38.500 30.000 "/></g>
<g fill="#909090FF" stroke="#909090FF">
<path d="M 33.500 19.000 C 32.239 19.542 32.055 19.859 33.000 19.859 C 33.825 19.859 35.400 19.473 36.500 19.000 C 37.761 18.458 37.945 18.141 37.000 18.141 C 36.175 18.141 34.600 18.527 33.500 19.000 "/></g>
<g fill="#A1160BFF" stroke="#A1160BFF">
<path d="M 36.000 26.000 C 36.000 26.550 37.013 26.993 38.250 26.985 C 40.069 26.972 40.213 26.784 39.000 26.000 C 37.061 24.747 36.000 24.747 36.000 26.000 "/></g>
<g fill="#909090FF" stroke="#909090FF">
<path d="M 40.500 17.000 C 39.181 17.567 39.011 17.878 40.000 17.914 C 40.825 17.945 42.175 17.533 43.000 17.000 C 44.828 15.819 43.249 15.819 40.500 17.000 "/></g>
<g fill="#3A59BAFF" stroke="#3A59BAFF">
<path d="M 41.171 34.000 C 41.443 34.825 42.261 35.500 42.987 35.500 C 43.860 35.500 43.693 34.992 42.491 34.000 C 40.877 32.667 40.730 32.667 41.171 34.000 "/></g>
<g fill="#86C470FF" stroke="#86C470FF">
<path d="M 23.729 26.604 C 22.608 27.725 22.865 29.202 24.053 28.467 C 24.632 28.110 24.960 27.380 24.782 26.846 C 24.604 26.312 24.130 26.203 23.729 26.604 "/></g>
<g fill="#E93426FF" stroke="#E93426FF">
<path d="M 14.000 29.950 C 14.000 30.528 14.788 30.986 15.750 30.970 C 17.417 30.941 17.417 30.891 15.750 29.920 C 14.547 29.219 14.000 29.229 14.000 29.950 "/></g>
<g fill="#86C470FF" stroke="#86C470FF">
<path d="M 26.422 27.126 C 25.910 27.955 26.224 27.963 27.613 27.157 C 28.651 26.554 28.964 26.047 28.309 26.030 C 27.654 26.014 26.805 26.507 26.422 27.126 "/></g>
<g fill="#86C470FF" stroke="#86C470FF">
<path d="M 36.422 23.874 C 36.805 24.493 37.654 24.986 38.309 24.970 C 38.964 24.953 38.651 24.446 37.613 23.843 C 36.224 23.037 35.910 23.045 36.422 23.874 "/></g>
<g fill="#86C470FF" stroke="#86C470FF">
<path d="M 11.624 20.799 C 11.212 21.466 11.390 22.000 12.024 22.000 C 12.653 22.000 12.987 21.460 12.766 20.799 C 12.455 19.865 12.202 19.865 11.624 20.799 "/></g>
</svg>
